<?xml version="1.0" standalone="no"?>
<!DOCTYPE svg PUBLIC "-//W3C//DTD SVG 20010904//EN"
 "http://www.w3.org/TR/2001/REC-SVG-20010904/DTD/svg10.dtd">
<svg version="1.0" xmlns="http://www.w3.org/2000/svg"
 width="700.000000pt" height="700.000000pt" viewBox="0 0 700.000000 700.000000"
 preserveAspectRatio="xMidYMid meet">
<metadata>
Created by potrace 1.14, written by Peter Selinger 2001-2017
</metadata>
<g transform="translate(0.000000,700.000000) scale(0.100000,-0.100000)"
fill="#000000" stroke="none">
<path d="M1368 6955 c-2 -1 -37 -5 -78 -9 -185 -15 -362 -75 -497 -168 -24
-16 -43 -27 -43 -24 0 2 -30 -24 -67 -59 -36 -36 -69 -62 -73 -60 -4 3 -14 -3
-21 -12 -12 -14 -12 -16 1 -8 13 8 13 7 1 -8 -15 -19 -36 -23 -25 -5 4 7 3 8
-5 4 -9 -6 -9 -11 1 -24 12 -14 10 -14 -12 -2 -19 9 -22 10 -13 0 12 -13 7
-40 -8 -40 -4 0 -5 8 -2 17 5 12 1 11 -15 -5 -12 -12 -22 -27 -22 -34 0 -6 7
-3 15 8 8 10 15 14 15 7 0 -6 -5 -15 -10 -18 -6 -4 -8 -11 -4 -16 3 -5 2 -9
-3 -8 -22 4 -35 -2 -30 -16 5 -11 1 -12 -17 -5 -13 5 -29 4 -37 -1 -8 -5 -10
-9 -5 -9 5 0 4 -6 -3 -13 -8 -10 -7 -17 1 -25 9 -9 7 -12 -11 -12 -15 0 -20 4
-15 13 4 6 3 8 -1 4 -14 -12 -15 -39 -1 -34 7 3 13 -1 13 -8 0 -6 -10 -12 -21
-11 -22 1 -30 -28 -15 -49 4 -6 3 -17 -3 -25 -8 -12 -9 -12 -4 3 3 11 0 20 -9
23 -8 4 -12 11 -8 17 3 6 1 7 -6 3 -9 -6 -9 -11 0 -22 9 -11 8 -14 -4 -14 -9
0 -18 -4 -22 -9 -3 -6 5 -8 17 -6 22 4 22 4 4 -10 -11 -8 -24 -15 -29 -15 -5
0 -4 -7 4 -16 10 -13 10 -17 -1 -24 -9 -5 -20 -4 -27 2 -11 8 -12 7 -7 -7 5
-12 4 -16 -3 -12 -7 5 -9 0 -6 -13 3 -11 9 -17 14 -14 5 3 6 11 3 17 -4 7 -4
9 1 5 4 -4 15 -2 24 4 12 10 12 7 -2 -8 -9 -11 -14 -24 -10 -29 5 -4 3 -5 -3
-2 -11 6 -29 -19 -26 -35 1 -4 -5 -5 -14 -1 -11 4 -15 0 -12 -13 2 -11 8 -23
13 -27 6 -5 3 -7 -7 -3 -20 6 -34 -10 -16 -17 9 -4 8 -6 -2 -6 -9 -1 -21 4
-28 11 -7 7 -12 9 -12 4 0 -13 27 -35 34 -28 4 3 4 -1 0 -11 -3 -9 -10 -17
-16 -17 -5 0 -7 4 -4 9 3 5 -1 12 -9 15 -12 4 -13 2 -6 -12 6 -11 6 -24 0 -33
-8 -13 -13 -6 -10 14 1 5 -3 6 -9 2 -8 -5 -7 -11 1 -21 11 -13 6 -18 -14 -15
-5 1 -6 -3 -2 -9 3 -6 9 -8 13 -6 4 2 13 -2 20 -10 10 -11 10 -14 0 -14 -9 0
-9 -3 0 -12 7 -7 12 -16 12 -20 0 -4 -8 0 -18 10 -12 11 -14 20 -8 24 8 5 8 8
0 8 -20 0 -24 -13 -8 -31 10 -11 12 -19 4 -24 -5 -3 -8 -10 -5 -15 3 -5 1 -11
-4 -15 -6 -3 -8 3 -6 15 5 26 -7 26 -23 0 -8 -14 -9 -19 -1 -18 6 2 14 -3 17
-11 3 -8 0 -11 -7 -7 -7 5 -9 1 -4 -10 5 -14 8 -13 25 7 10 14 17 18 16 9 -4
-19 -30 -40 -41 -33 -10 6 -37 -29 -30 -40 2 -4 9 -5 14 -1 5 3 7 10 4 15 -4
5 -2 9 3 9 5 0 12 -9 15 -21 3 -12 3 -18 0 -15 -8 7 -43 -12 -43 -24 0 -6 5
-10 11 -10 5 0 7 6 3 13 -5 9 -4 9 6 0 14 -13 21 -65 8 -57 -4 3 -8 13 -8 22
0 13 -2 14 -9 3 -5 -7 -11 -9 -13 -5 -3 5 -3 3 -1 -5 2 -8 -1 -17 -7 -21 -7
-5 -6 -11 5 -20 13 -11 15 -10 9 4 -3 9 -1 16 6 16 6 0 8 -4 5 -10 -3 -5 -1
-10 6 -10 10 0 1 -9 -50 -47 -2 -2 -2 -5 1 -8 3 -3 18 5 34 17 16 12 23 15 17
7 -7 -9 -9 -19 -5 -23 4 -4 0 -6 -8 -4 -9 2 -14 -5 -15 -19 0 -12 -3 -25 -7
-29 -13 -12 -9 -26 5 -18 8 5 8 2 -2 -9 -14 -17 -26 -24 -17 -9 2 4 -3 8 -13
8 -10 0 -18 -6 -18 -12 0 -7 6 -10 13 -7 6 2 15 -1 19 -6 3 -6 11 -8 17 -5 7
4 8 2 4 -5 -6 -9 -11 -9 -24 1 -13 11 -15 11 -10 -4 4 -9 4 -19 0 -22 -3 -4
-8 -19 -10 -34 -2 -15 0 -23 5 -18 4 4 8 17 8 29 0 11 7 22 15 24 9 3 11 1 5
-4 -6 -4 -10 -15 -10 -23 1 -8 -3 -21 -8 -27 -6 -8 -6 -13 1 -13 11 0 9 -33
-3 -62 -4 -10 -11 -18 -17 -18 -5 0 -2 10 6 22 18 25 21 42 6 33 -6 -3 -7 1
-4 9 3 9 1 16 -6 16 -6 0 -9 -4 -6 -9 4 -5 0 -12 -6 -14 -10 -4 -10 -6 0 -6 6
-1 12 -9 12 -18 0 -16 -2 -16 -10 -3 -8 11 -9 9 -6 -12 2 -14 2 -29 -2 -32
-10 -11 -12 -46 -3 -46 6 0 8 8 6 18 -2 12 3 18 17 18 17 0 17 -2 4 -12 -9 -6
-12 -14 -8 -18 4 -4 7 -13 7 -19 1 -7 7 -10 15 -9 8 2 11 0 7 -5 -5 -4 -12 -8
-15 -8 -4 0 -13 -4 -21 -9 -11 -7 -12 -6 -6 5 8 12 6 12 -8 0 -18 -14 -24 -26
-8 -17 5 3 9 -5 9 -19 0 -14 -5 -22 -11 -18 -6 3 -7 1 -3 -6 4 -6 11 -9 15 -7
4 3 13 1 21 -5 12 -7 12 -9 1 -9 -8 0 -11 -6 -7 -16 3 -8 2 -12 -4 -9 -6 3
-10 1 -10 -5 0 -6 -5 -8 -11 -4 -6 3 -5 -6 3 -22 8 -16 14 -36 13 -44 0 -8 6
-18 15 -23 9 -4 6 -6 -10 -3 l-25 5 0 -133 c0 -87 4 -132 10 -128 6 3 6 0 -1
-9 -11 -16 -12 -188 0 -207 4 -7 2 -12 -3 -12 -6 0 -11 -5 -11 -11 0 -5 6 -7
13 -3 9 6 9 4 1 -7 -7 -9 -10 -133 -8 -374 1 -198 2 -364 3 -368 0 -5 7 -5 14
-2 6 4 5 1 -3 -7 -13 -11 -15 -66 -14 -398 2 -437 1 -413 13 -406 5 4 8 -2 6
-11 -1 -10 2 -24 8 -31 5 -7 7 -15 3 -19 -3 -3 -6 -1 -6 6 0 7 -4 10 -9 6 -6
-3 -8 4 -6 15 2 11 0 20 -4 20 -4 0 -6 -48 -5 -107 2 -130 2 -126 13 -119 5 4
8 -2 6 -11 -1 -10 1 -23 6 -29 5 -7 3 -11 -5 -11 -8 0 -13 8 -11 19 2 10 1 18
-3 18 -10 0 -8 -272 2 -288 4 -7 2 -12 -5 -12 -8 0 -7 -5 2 -17 8 -9 9 -14 4
-11 -13 8 -14 -180 -2 -199 5 -8 3 -13 -4 -13 -8 0 -7 -5 2 -17 8 -9 9 -14 4
-11 -12 8 -14 -90 -2 -109 4 -6 1 -14 -5 -16 -8 -3 -6 -6 5 -6 9 -1 17 -5 17
-11 0 -5 -6 -7 -13 -4 -19 7 -16 -64 3 -76 13 -8 13 -10 0 -10 -13 0 -16 -14
-15 -74 0 -61 2 -73 15 -68 11 4 9 -1 -5 -18 -11 -13 -15 -20 -9 -17 7 4 12
-3 12 -18 0 -14 -4 -23 -8 -20 -3 2 -7 -2 -7 -10 0 -11 4 -12 14 -4 17 14 17
-2 0 -20 -10 -11 -9 -13 5 -8 10 3 20 1 24 -5 5 -7 3 -8 -5 -3 -9 5 -12 -2
-10 -28 2 -20 -1 -40 -5 -44 -5 -4 -6 -3 -2 4 3 6 1 15 -5 19 -8 4 -9 3 -5 -4
4 -7 1 -12 -6 -12 -8 -1 -7 -4 4 -10 9 -6 15 -18 13 -28 -2 -9 -4 -19 -4 -22
-1 -3 -6 2 -12 10 -8 12 -10 12 -7 1 2 -8 12 -15 21 -17 9 -1 15 1 13 5 -3 4
5 8 17 8 20 2 20 1 5 -8 -23 -13 -23 -30 -1 -23 11 4 14 2 8 -3 -14 -11 -16
-85 -2 -76 6 4 7 1 2 -7 -4 -7 -9 -22 -9 -34 -1 -11 -8 -20 -15 -18 -7 1 -10
-2 -6 -7 3 -6 12 -8 19 -5 7 3 19 -3 27 -13 12 -16 12 -17 -2 -6 -16 13 -29 8
-29 -9 0 -5 6 -6 13 -2 6 4 4 -2 -6 -13 -17 -19 -17 -22 -2 -37 9 -9 21 -13
27 -10 5 3 4 -4 -4 -15 -11 -18 -11 -23 2 -31 8 -5 11 -10 5 -10 -5 0 -2 -7 8
-14 16 -12 16 -14 2 -20 -11 -4 -14 -2 -9 6 4 7 3 8 -5 4 -9 -6 -9 -11 1 -23
11 -14 10 -15 -12 -9 -25 6 -25 6 -2 -6 13 -6 21 -17 18 -25 -4 -8 -1 -11 5
-8 6 4 8 13 5 21 -10 25 9 15 21 -12 11 -23 10 -24 -4 -12 -15 11 -16 11 -10
-5 4 -11 3 -16 -3 -12 -6 3 -10 1 -10 -4 0 -6 10 -11 23 -11 17 0 19 -2 7 -9
-8 -6 -18 -7 -23 -4 -5 3 -4 -3 2 -14 5 -11 8 -33 6 -49 -2 -16 -2 -23 1 -16
3 6 10 10 14 7 9 -6 7 14 -5 50 -6 19 -6 19 5 2 7 -11 13 -26 15 -35 1 -10 9
-16 16 -14 11 3 12 1 1 -9 -18 -19 -15 -32 5 -24 13 4 15 3 7 -5 -6 -6 -18 -8
-28 -4 -14 5 -14 9 -4 23 12 14 11 15 -5 2 -18 -14 -18 -15 4 -31 16 -13 20
-24 16 -42 -4 -15 0 -33 9 -46 12 -17 12 -22 2 -22 -10 0 -10 -2 -1 -8 7 -4
14 -17 16 -27 6 -32 18 -55 29 -55 6 0 6 6 -1 14 -8 10 -9 16 -1 21 5 3 10 0
11 -7 0 -7 2 -21 4 -31 3 -13 -2 -16 -21 -13 -13 3 -22 1 -19 -4 3 -4 18 -7
34 -6 21 1 28 -2 26 -14 -1 -8 5 -26 14 -40 9 -13 11 -21 4 -17 -20 12 -27
-15 -8 -29 14 -10 22 -11 32 -2 11 8 12 7 7 -6 -3 -9 -1 -16 5 -16 9 0 9 -6 0
-22 -11 -20 -10 -21 2 -11 12 10 15 8 16 -8 1 -12 -2 -17 -10 -12 -6 3 -1 -8
12 -25 12 -18 27 -29 32 -26 6 3 9 0 8 -7 -2 -8 0 -27 5 -43 6 -23 9 -27 17
-15 12 20 11 37 -2 19 -9 -12 -10 -12 -7 -1 6 21 28 26 28 7 0 -9 4 -16 8 -16
12 0 11 -32 -2 -50 -6 -8 0 -6 13 5 l24 20 -13 -24 c-7 -15 -8 -21 -1 -17 6 4
11 0 11 -9 0 -10 -5 -13 -12 -9 -7 4 -9 3 -5 -1 4 -5 15 -10 23 -11 11 -2 14
3 9 14 -4 9 -7 19 -8 22 -1 3 2 5 8 5 5 0 10 -7 10 -15 0 -8 6 -14 14 -12 11
2 12 0 3 -11 -10 -11 -9 -17 3 -27 8 -7 13 -16 10 -20 -3 -5 0 -12 6 -16 7 -4
9 -3 6 3 -4 6 4 15 17 21 21 9 23 8 19 -9 -3 -11 0 -19 6 -19 7 0 9 6 5 13 -4
7 -3 9 2 4 5 -5 9 -12 10 -15 0 -4 4 -15 9 -26 5 -12 3 -21 -6 -27 -8 -5 -9
-9 -3 -9 13 0 36 25 29 31 -2 3 5 5 16 5 18 0 19 -2 4 -12 -14 -10 -14 -15 -3
-33 8 -14 19 -19 32 -15 13 4 16 2 11 -6 -6 -9 -3 -9 15 0 21 11 21 11 5 -17
-16 -27 -16 -27 0 -8 12 14 19 16 22 8 3 -7 12 -13 21 -13 13 0 14 2 4 9 -11
7 -10 9 3 14 9 4 14 3 11 -2 -3 -5 3 -20 14 -33 11 -14 16 -29 12 -33 -4 -5
-1 -5 6 -1 10 6 10 11 2 21 -9 11 -7 12 9 8 24 -6 25 -8 11 -33 -7 -13 -7 -21
2 -26 6 -4 8 -3 5 2 -3 6 -1 16 4 24 7 13 10 13 18 1 6 -9 11 -10 15 -2 8 13
59 6 64 -9 2 -5 8 -10 13 -10 6 0 8 4 5 9 -4 5 4 7 16 3 20 -5 21 -6 3 -12
-18 -6 -17 -7 3 -12 15 -4 22 -2 22 8 0 8 5 14 10 14 6 0 9 -3 8 -7 -2 -5 7
-18 19 -30 13 -13 23 -18 23 -12 0 7 -8 17 -17 24 -15 11 -13 12 12 8 17 -2
38 -4 48 -4 15 0 16 -3 6 -15 -6 -8 -9 -17 -5 -21 3 -3 6 -1 6 5 0 7 6 12 14
12 9 0 13 7 11 19 -3 15 0 18 13 14 10 -4 12 -8 4 -11 -7 -2 -9 -8 -6 -13 4
-7 10 -7 17 0 8 6 25 3 51 -10 46 -22 46 -22 46 -8 0 5 -4 7 -10 4 -6 -3 -7 1
-3 10 4 12 8 13 13 5 5 -9 9 -9 14 -1 12 19 27 12 23 -12 -2 -12 -2 -16 0 -10
5 16 28 17 55 2 15 -8 23 -8 32 2 8 9 8 10 -1 5 -14 -7 -58 12 -49 21 3 3 12
0 20 -6 11 -9 20 -10 36 -1 16 8 20 8 18 -2 -2 -7 3 -12 11 -10 7 1 20 -3 29
-10 10 -9 13 -9 9 -1 -4 6 -2 15 4 19 9 5 7 11 -6 20 -16 12 -16 13 3 11 11 0
18 -5 16 -9 -3 -4 -1 -8 5 -8 5 0 12 6 14 13 4 7 6 6 6 -5 1 -9 -5 -18 -11
-21 -10 -4 -10 -7 0 -18 7 -8 12 -9 11 -4 -1 6 3 21 9 35 8 19 11 21 11 7 1
-10 6 -15 11 -12 6 4 8 10 5 15 -8 12 21 20 33 8 6 -6 8 -18 5 -27 -4 -13 -3
-13 5 -2 6 8 8 20 5 27 -6 15 38 7 49 -10 5 -8 8 -7 8 2 0 6 7 12 15 12 8 0
15 5 15 10 0 7 -6 7 -20 0 -15 -8 -18 -8 -14 3 7 18 53 15 64 -3 8 -13 10 -13
10 -1 0 11 4 9 15 -5 13 -16 14 -16 9 -1 -5 13 -2 16 12 11 14 -4 16 -3 5 4
-17 12 -6 31 17 27 9 -1 22 2 28 6 17 14 44 0 37 -19 -4 -14 -3 -15 5 -2 8 10
8 18 0 27 -8 10 -7 12 6 7 9 -3 16 -11 16 -17 0 -6 3 -7 7 -4 3 4 -2 17 -13
29 -10 13 -12 17 -4 10 18 -15 34 -16 24 0 -4 6 -3 8 4 4 6 -3 9 -15 7 -26 -2
-11 0 -22 4 -25 5 -2 8 3 8 13 0 34 3 43 13 37 6 -4 7 -11 4 -17 -4 -7 -2 -8
5 -4 6 4 9 12 6 17 -4 5 1 9 10 9 9 0 14 4 11 9 -3 4 5 7 19 6 14 -2 26 3 30
13 6 15 8 15 21 -2 9 -13 14 -15 14 -6 0 7 3 10 7 7 3 -4 13 -1 21 6 13 10 15
9 8 -8 -5 -15 -4 -17 5 -8 16 16 3 32 -26 29 -13 -2 -22 1 -19 6 3 5 12 7 19
4 8 -3 16 0 19 7 3 9 5 9 5 0 1 -7 6 -13 12 -13 5 0 7 5 3 12 -4 7 -3 8 5 4 6
-4 10 -10 7 -14 -2 -4 0 -16 5 -27 6 -15 7 -10 5 17 -2 20 0 37 3 36 3 0 9 1
14 2 4 1 13 3 20 4 6 1 11 8 9 14 -2 10 3 10 17 2 13 -7 22 -7 26 0 3 5 11 10
18 10 6 0 2 -6 -8 -14 -11 -8 -25 -12 -32 -9 -7 3 -13 0 -13 -7 0 -7 -7 -10
-15 -7 -8 4 -17 1 -21 -5 -4 -6 -3 -8 4 -4 6 3 14 1 18 -5 4 -8 9 -7 15 2 10
17 31 19 42 4 5 -6 6 -2 3 9 -5 14 -2 17 9 12 11 -4 14 -2 9 6 -5 7 -2 9 8 6
8 -4 15 0 15 8 0 7 -5 11 -10 7 -5 -3 -4 4 2 16 14 25 23 28 14 3 -6 -14 -4
-15 8 -5 10 8 19 9 29 1 13 -8 12 -9 -2 -5 -9 3 -19 -1 -22 -9 -9 -22 -7 -31
3 -16 4 7 17 14 29 15 14 1 18 5 12 11 -16 16 -12 26 11 26 11 0 17 4 14 10
-3 6 1 7 10 4 11 -5 14 -2 9 12 -5 15 -4 16 4 4 6 -8 8 -18 6 -22 -3 -4 0 -8
7 -8 6 0 9 8 6 20 -3 11 -1 18 3 15 5 -3 13 3 19 12 5 10 13 15 16 11 4 -4 0
-14 -9 -23 -20 -20 -20 -22 -2 -22 8 0 15 3 14 6 -2 18 3 24 10 14 5 -9 12 -6
21 10 13 19 12 21 -1 10 -12 -10 -15 -10 -15 1 0 14 14 16 34 3 6 -4 14 -3 18
2 3 5 -3 14 -12 20 -10 5 -15 12 -12 15 3 3 16 -4 28 -15 21 -20 23 -20 21 -3
-4 39 -1 49 12 36 10 -10 15 -7 24 10 l13 23 -2 -23 c-1 -22 -8 -26 -36 -23
-7 2 -10 -2 -7 -8 10 -15 52 -10 54 6 1 7 3 20 4 27 1 8 6 14 12 13 6 -1 10 4
8 11 -2 10 2 10 18 2 13 -7 20 -7 20 0 0 5 7 10 15 10 9 0 12 6 9 18 -5 14 -4
15 5 2 8 -12 5 -19 -11 -31 -12 -10 -29 -15 -37 -12 -12 3 -11 2 1 -7 14 -9
22 -7 39 9 12 11 27 18 32 14 6 -3 7 -1 3 5 -4 7 -1 12 7 12 8 0 17 7 21 15 3
8 17 15 31 15 18 0 24 -4 20 -12 -4 -7 1 -4 10 7 9 11 23 19 32 17 14 -3 14
-2 -1 13 -9 9 -16 18 -16 20 0 5 28 -4 45 -14 17 -10 35 -10 29 0 -3 5 -10 6
-16 3 -6 -4 -9 -1 -6 6 2 7 12 14 22 16 24 3 30 10 20 25 -5 9 -10 7 -16 -7
-8 -18 -8 -18 -5 1 2 15 9 19 26 17 14 -2 21 0 17 7 -4 6 -1 9 7 5 8 -3 18 -1
22 5 3 6 11 11 18 11 8 0 8 -3 -1 -12 -15 -15 -15 -28 -1 -28 5 0 8 4 4 9 -3
5 -1 13 5 16 8 5 7 12 -2 23 -12 14 -10 14 10 3 12 -7 20 -17 16 -23 -4 -6 -3
-8 4 -5 5 4 8 16 5 27 -3 11 -10 17 -16 13 -6 -3 -7 -1 -3 5 10 16 26 15 26
-2 0 -17 27 -29 35 -15 4 5 1 8 -6 7 -7 -2 -13 2 -14 7 0 6 -3 15 -7 21 -4 6
-1 11 7 11 8 0 12 -4 10 -8 -3 -4 2 -10 11 -13 10 -4 13 -2 8 6 -5 7 -2 9 8 6
8 -4 15 -1 15 7 0 8 -7 11 -16 8 -11 -4 -9 -1 4 10 21 16 49 12 38 -7 -11 -17
-12 -37 -2 -30 5 3 7 9 4 14 -3 5 -1 11 5 15 6 4 8 10 5 15 -3 4 2 13 10 20 8
7 12 16 9 21 -3 5 3 6 12 2 13 -5 15 -3 9 8 -4 8 -5 11 0 7 4 -4 15 -2 24 4
10 8 8 4 -3 -10 -16 -18 -17 -25 -7 -35 10 -9 11 -9 6 5 -6 15 12 27 54 34 8
2 21 9 29 18 13 13 13 14 -2 12 -10 -1 -21 -7 -24 -12 -10 -13 -32 -16 -32 -4
0 6 7 10 15 10 9 0 12 6 9 18 -4 10 -2 13 3 7 7 -9 16 -11 39 -6 4 0 0 9 -7
18 -8 10 -9 14 -2 10 6 -4 14 -3 18 2 3 6 13 7 22 4 11 -4 14 -3 9 5 -5 8 -2
10 8 6 9 -3 16 -1 16 5 0 6 5 11 10 11 19 0 10 -17 -15 -28 -14 -6 -25 -17
-24 -24 0 -10 2 -10 6 0 4 10 8 10 19 1 12 -10 13 -9 8 6 -5 12 -4 16 4 11 6
-3 13 3 17 14 6 18 27 25 63 21 15 -2 16 15 0 25 -6 4 -9 3 -6 -2 4 -5 -5 -10
-19 -10 -28 -2 -28 -2 15 20 18 9 31 13 30 9 -2 -4 2 -8 7 -8 5 0 9 2 8 5 -13
38 -14 44 -5 32 12 -17 54 -12 60 8 4 12 2 13 -9 2 -7 -6 -18 -12 -23 -12 -13
1 24 24 39 25 6 1 9 7 7 15 -3 11 0 11 12 1 9 -7 17 -8 20 -2 3 5 0 12 -6 15
-7 3 -4 4 7 3 12 -1 19 3 17 11 -1 8 2 11 8 7 5 -3 10 -1 10 6 0 7 3 9 6 6 4
-4 2 -13 -5 -21 -9 -11 -6 -14 15 -14 14 0 22 3 17 7 -5 3 -10 17 -11 31 -1
19 1 21 8 10 5 -8 10 -11 10 -7 0 4 9 3 20 -3 11 -6 20 -7 19 -3 -1 4 -1 17 0
28 1 16 3 17 10 5 6 -8 7 -18 5 -22 -3 -4 2 -5 11 -1 9 3 13 9 8 12 -4 3 -9
14 -11 25 -3 13 1 17 12 13 15 -6 40 15 30 26 -3 3 2 4 13 3 25 -5 55 13 47
27 -4 7 -3 9 1 4 5 -4 15 -1 24 7 16 14 20 16 41 16 5 0 8 6 6 13 -1 6 -1 9 1
4 3 -4 10 -5 16 -1 7 3 1 -4 -12 -15 -13 -12 -18 -21 -13 -21 6 0 14 5 17 10
4 6 16 8 28 5 16 -5 18 -4 8 3 -7 5 -10 15 -7 21 4 6 1 11 -6 11 -7 0 -4 6 7
12 24 14 77 20 70 8 -3 -5 -2 -11 3 -14 13 -8 11 28 -2 36 -7 5 -4 8 7 8 10 0
15 5 12 10 -3 6 -1 10 5 10 6 0 8 -11 6 -25 -3 -18 -1 -23 7 -18 7 4 16 8 22
8 5 0 11 9 12 20 3 19 3 19 -5 1 -6 -14 -11 -16 -16 -8 -4 7 4 22 21 36 24 21
30 23 43 11 14 -12 16 -12 17 6 1 12 -2 17 -10 13 -7 -4 -9 -3 -4 1 12 14 49
16 63 4 11 -9 14 -8 14 0 0 7 5 9 10 6 6 -4 9 -1 8 7 -2 7 5 12 14 12 10 -1
16 1 15 5 -1 3 3 6 8 6 5 0 9 -4 7 -8 -1 -5 2 -6 8 -2 8 5 8 11 1 19 -6 7 -7
17 -3 21 4 5 -9 -4 -29 -18 -20 -15 -39 -24 -44 -19 -5 4 -5 1 -1 -5 4 -7 3
-13 -3 -13 -14 0 -25 20 -12 21 6 1 16 2 21 3 6 0 14 7 19 14 5 8 12 14 17 15
5 1 8 6 6 12 -2 5 0 6 4 2 4 -4 14 3 22 15 7 13 11 15 8 6 -7 -22 2 -48 16
-48 7 0 6 5 -1 14 -9 10 -8 16 4 26 8 7 12 16 9 21 -3 5 3 6 12 2 12 -4 15 -3
10 6 -4 6 -4 11 1 10 21 -4 34 2 27 13 -4 7 -3 8 4 4 7 -4 12 -1 12 6 0 10 3
9 9 -2 12 -17 4 -33 -12 -24 -7 4 -8 3 -4 -1 10 -12 38 -15 31 -4 -3 5 0 9 6
9 7 0 7 7 -1 23 -9 18 -9 20 2 9 22 -21 33 -13 13 11 -10 12 -12 16 -4 9 20
-17 30 -15 24 5 -5 14 -4 15 4 4 6 -8 12 -9 16 -3 3 5 17 8 31 7 16 -2 29 3
35 16 13 23 55 48 47 27 -2 -7 -10 -12 -16 -10 -7 1 -10 -2 -6 -8 5 -8 11 -8
19 -1 7 6 15 8 19 5 3 -3 3 3 0 15 -3 12 -10 21 -16 21 -6 0 -8 2 -5 5 3 3 17
1 32 -5 21 -8 27 -7 23 2 -2 7 -11 12 -18 10 -8 -2 -10 0 -6 4 11 12 37 14 37
3 0 -5 8 -9 18 -8 10 0 12 3 5 6 -7 2 -13 9 -13 14 0 6 5 7 12 3 7 -5 9 -2 6
7 -4 11 4 14 38 12 41 -2 53 5 38 20 -4 3 -16 2 -27 -4 -13 -7 -17 -8 -13 -1
6 11 64 42 75 42 3 0 -2 -7 -12 -14 -12 -9 -14 -16 -8 -21 6 -3 11 -1 11 5 0
6 5 8 12 4 7 -4 8 -3 4 4 -4 7 -3 12 3 12 6 0 8 7 4 16 -5 14 -1 16 27 12 l34
-5 -23 18 c-24 20 -17 26 9 9 11 -7 18 -3 27 13 7 12 12 16 13 10 0 -7 5 -13
10 -13 7 0 7 7 0 20 -10 19 -9 20 8 9 12 -7 18 -19 15 -28 -3 -9 2 -6 11 7 10
12 22 19 28 16 6 -4 8 -3 5 3 -3 5 3 17 15 27 17 15 25 16 47 6 l26 -12 -22
22 c-13 11 -23 25 -23 31 0 6 7 3 16 -5 20 -20 30 -21 14 -1 -11 13 -10 14 4
9 12 -5 15 -2 10 12 -4 14 -3 15 4 6 10 -14 65 -25 57 -11 -3 4 3 12 12 18 10
6 13 11 8 11 -6 0 -22 -7 -35 -17 -14 -9 -20 -10 -13 -3 6 7 10 18 9 24 -2 6
-1 8 1 4 8 -14 23 -9 23 7 0 8 5 15 11 15 5 0 8 -4 5 -9 -3 -5 2 -11 12 -13
11 -3 19 0 19 8 0 7 -3 11 -7 9 -3 -2 -7 6 -7 18 -1 12 1 17 5 12 11 -15 40
-17 48 -4 4 7 3 9 -4 5 -6 -3 -14 -1 -18 5 -4 7 -3 9 4 5 6 -3 14 -2 17 4 5 8
15 6 32 -5 17 -12 23 -13 17 -4 -5 8 -9 23 -11 34 -1 11 1 15 3 8 3 -7 12 -9
20 -6 7 3 12 9 9 13 -3 4 3 7 13 6 10 0 16 5 14 13 -3 12 0 12 12 1 9 -7 16
-20 17 -29 0 -9 3 -11 5 -4 3 7 0 21 -6 33 -11 21 -11 21 15 4 14 -9 28 -14
32 -10 3 3 1 6 -6 6 -7 0 -9 5 -5 12 4 6 3 8 -4 4 -6 -3 -13 -2 -16 3 -8 13
19 8 37 -7 12 -10 17 -10 23 -1 4 7 3 9 -4 5 -6 -3 -16 2 -21 13 -11 20 1 24
26 8 6 -4 14 -3 18 2 3 5 -3 14 -12 20 -24 14 -7 14 18 0 11 -5 17 -14 14 -19
-3 -5 -1 -11 4 -14 11 -7 9 13 -2 31 -5 7 0 16 13 23 11 6 19 14 19 18 -1 4
-1 16 0 27 1 17 3 18 11 5 14 -21 12 -33 -2 -24 -7 4 -4 -2 6 -14 11 -12 22
-22 25 -22 3 0 0 5 -6 11 -6 6 -9 18 -6 26 4 11 8 10 20 -4 13 -16 13 -16 3 5
-11 23 -6 42 11 42 5 0 9 -5 9 -11 0 -5 -5 -7 -12 -3 -7 5 -8 3 -3 -6 6 -10
13 -6 27 14 11 14 23 24 28 21 4 -3 11 2 14 11 3 8 10 13 15 9 16 -9 31 28 19
48 -9 16 -8 17 11 6 11 -7 17 -18 15 -24 -3 -5 1 -2 9 7 8 10 18 14 22 10 5
-4 5 -2 1 5 -4 7 -13 10 -20 7 -8 -3 -17 -1 -21 5 -4 7 0 8 11 4 12 -4 15 -3
10 5 -5 8 -1 10 10 5 10 -4 15 -2 11 3 -3 5 6 11 20 12 34 3 46 11 35 25 -6 8
-3 19 10 32 19 20 19 20 12 0 -6 -16 -5 -18 7 -8 7 7 18 13 24 13 5 0 1 -7 -9
-15 -10 -8 -23 -12 -28 -9 -10 6 -5 -32 6 -43 4 -5 7 -3 6 2 -4 20 0 36 9 31
5 -3 12 1 15 10 3 8 10 12 16 9 7 -4 7 2 0 19 -5 14 -6 28 -1 30 12 8 20 -4
15 -19 -3 -7 -1 -16 5 -20 7 -4 8 0 4 11 -5 12 -3 15 6 9 10 -6 11 -3 2 13
-14 26 -14 43 0 20 5 -10 15 -18 21 -18 7 0 7 4 -1 14 -9 10 -7 17 6 27 11 9
14 10 9 1 -4 -6 -2 -12 3 -12 6 0 11 5 11 10 0 6 5 10 11 10 5 0 7 -4 4 -10
-3 -5 -2 -10 3 -10 6 0 13 7 16 16 4 10 2 13 -6 8 -7 -4 -8 -3 -4 4 4 7 16 12
26 12 10 0 22 5 25 10 5 8 12 7 23 -2 15 -11 15 -11 4 4 -9 11 -10 18 -2 23 5
3 10 0 11 -7 0 -7 5 -3 11 10 6 12 15 22 20 22 4 0 8 6 8 13 -1 7 -8 3 -18 -8
-18 -21 -44 -28 -40 -10 2 6 7 9 12 7 14 -5 36 19 29 32 -4 6 2 4 12 -4 17
-14 18 -13 12 2 -3 10 -3 17 1 16 4 -1 22 12 40 30 28 26 37 30 54 21 16 -9
17 -13 7 -27 -11 -14 -11 -15 1 -5 14 13 24 47 12 39 -4 -2 -12 2 -19 9 -10
10 -9 14 3 19 9 4 12 2 8 -5 -10 -17 49 -6 63 11 12 16 7 34 -8 24 -5 -3 -6
-10 -3 -16 5 -8 1 -9 -10 -5 -10 4 -15 3 -11 -3 3 -6 1 -10 -4 -10 -16 0 -13
20 4 26 8 4 13 9 10 13 -6 11 28 10 42 -1 7 -6 14 -4 19 3 4 7 3 9 -3 6 -6 -4
-13 2 -16 13 -3 11 -2 19 2 18 19 -2 31 3 26 12 -3 6 1 7 10 4 12 -5 13 -9 4
-20 -18 -22 -7 -23 14 -2 9 10 13 18 7 18 -5 0 -10 7 -10 15 0 8 5 15 11 15 5
0 7 -6 3 -12 -4 -7 2 -5 14 5 12 11 26 16 33 11 7 -4 10 -3 6 3 -7 11 37 54
47 47 3 -2 2 2 -4 8 -16 19 -12 32 5 18 13 -11 14 -10 9 5 -5 13 -4 16 4 11 7
-4 12 -1 12 7 0 20 32 45 52 42 10 -2 21 2 25 7 3 6 1 8 -4 5 -6 -4 -13 -1
-16 7 -4 9 3 13 21 12 21 -1 31 6 44 33 9 19 21 37 26 40 5 3 14 15 21 26 11
18 12 18 7 1 -6 -16 -4 -17 9 -6 8 7 12 17 8 23 -4 7 0 8 12 3 16 -6 16 -4 4
11 -9 11 -10 14 -1 9 6 -4 12 -3 12 1 0 13 100 118 110 116 5 -2 6 5 3 14 -5
13 -2 15 11 10 11 -5 15 -3 10 5 -4 6 1 17 11 25 11 7 15 13 9 13 -5 0 -4 4 2
8 6 4 32 38 58 76 197 290 200 543 11 805 -62 86 -193 218 -305 306 -41 33
-77 62 -80 65 -3 3 -12 10 -21 15 -9 6 -61 40 -115 78 -142 97 -204 137 -215
137 -5 0 -9 5 -9 10 0 6 -5 10 -10 10 -6 0 -39 18 -72 40 -34 22 -68 40 -75
40 -7 0 -13 5 -13 10 0 6 -4 10 -9 10 -7 0 -112 59 -181 101 -8 5 -32 16 -52
25 -21 9 -38 20 -38 25 0 5 -9 9 -20 9 -11 0 -20 5 -20 10 0 6 -4 10 -9 10 -5
0 -36 15 -69 34 -33 19 -63 32 -66 28 -3 -3 -6 0 -6 6 0 7 -7 12 -16 12 -18 0
-95 40 -106 55 -4 6 -8 7 -8 3 0 -4 -26 8 -57 27 -32 19 -63 35 -70 35 -6 0
-13 3 -15 8 -1 4 -25 18 -53 32 -27 14 -52 27 -55 30 -3 3 -18 12 -35 20 -16
8 -42 23 -57 33 -16 10 -28 16 -28 13 0 -3 -17 6 -37 20 -20 13 -47 27 -59 30
-12 3 -25 12 -28 20 -3 8 -15 14 -26 14 -11 0 -20 4 -20 8 0 5 -16 14 -35 22
-19 8 -35 18 -35 24 0 5 -3 6 -6 3 -4 -4 -19 2 -33 12 -14 10 -39 24 -56 33
-43 21 -78 41 -97 57 -10 8 -18 11 -18 7 0 -4 -13 2 -29 13 -16 12 -31 21 -34
21 -2 0 -47 24 -100 54 -52 30 -98 52 -101 48 -3 -3 -6 -1 -6 5 0 5 -33 26
-72 47 -40 20 -95 50 -123 66 -27 16 -75 42 -105 57 -30 15 -57 31 -60 34 -3
3 -41 25 -85 49 -75 41 -110 60 -166 92 -13 7 -32 19 -41 27 -10 8 -18 11 -18
7 0 -4 -12 1 -27 12 -16 10 -43 25 -60 33 -18 8 -33 17 -33 21 0 5 -4 8 -9 8
-6 0 -36 16 -67 34 -32 19 -61 33 -66 30 -4 -3 -8 -1 -8 3 0 5 -21 20 -47 33
-27 14 -50 27 -53 30 -3 3 -25 16 -50 29 -25 14 -47 27 -50 30 -11 13 -70 42
-70 34 0 -4 -4 -3 -8 3 -10 14 -141 80 -352 177 -245 112 -571 221 -785 262
-83 16 -146 25 -205 31 -71 6 -238 12 -242 9z m-928 -499 c0 -8 -7 -16 -15
-20 -12 -4 -13 -2 -2 14 14 24 17 25 17 6z m-60 -121 c0 -5 -5 -3 -10 5 -5 8
-10 20 -10 25 0 6 5 3 10 -5 5 -8 10 -19 10 -25z m-180 -330 c-10 -12 -10 -15
1 -15 11 0 11 -2 -1 -9 -23 -15 -33 -1 -14 20 20 22 32 26 14 4z m-160 -800
c-10 -12 -10 -15 0 -15 8 0 11 -3 7 -6 -3 -3 -11 -3 -17 1 -8 5 -8 11 1 21 6
8 14 14 16 14 3 0 0 -7 -7 -15z m10 -101 c0 -8 -19 -13 -24 -6 -3 5 1 9 9 9 8
0 15 -2 15 -3z m-7 -119 c-7 -21 -12 -19 -10 4 0 11 5 18 9 15 4 -3 5 -11 1
-19z m-22 -78 c-10 -9 -11 -8 -5 6 3 10 9 15 12 12 3 -3 0 -11 -7 -18z m9
-248 c0 -5 -4 -9 -8 -9 -5 0 -9 7 -9 15 0 8 4 12 9 9 4 -3 8 -9 8 -15z m-4
-185 c3 -16 2 -26 -1 -23 -3 4 -8 19 -11 35 -3 16 -2 26 1 23 3 -4 8 -19 11
-35z m0 -109 c-1 -8 -5 -17 -8 -21 -5 -4 -4 16 1 34 3 9 9 -1 7 -13z m4 -45
c0 -5 -4 -10 -10 -10 -5 0 -10 5 -10 10 0 6 5 10 10 10 6 0 10 -4 10 -10z m-4
-75 c-1 -8 -5 -17 -8 -21 -5 -4 -4 16 1 34 3 9 9 -1 7 -13z m4 -45 c0 -5 -4
-10 -10 -10 -5 0 -10 5 -10 10 0 6 5 10 10 10 6 0 10 -4 10 -10z m-4 -75 c-1
-8 -5 -17 -8 -21 -5 -4 -4 16 1 34 3 9 9 -1 7 -13z m4 -45 c0 -5 -4 -10 -10
-10 -5 0 -10 5 -10 10 0 6 5 10 10 10 6 0 10 -4 10 -10z m-4 -75 c-1 -8 -5
-17 -8 -21 -5 -4 -4 16 1 34 3 9 9 -1 7 -13z m4 -45 c0 -5 -4 -10 -10 -10 -5
0 -10 5 -10 10 0 6 5 10 10 10 6 0 10 -4 10 -10z m-4 -75 c-1 -8 -5 -17 -8
-21 -5 -4 -4 16 1 34 3 9 9 -1 7 -13z m4 -45 c0 -5 -4 -10 -10 -10 -5 0 -10 5
-10 10 0 6 5 10 10 10 6 0 10 -4 10 -10z m0 -120 c0 -5 -4 -10 -10 -10 -5 0
-10 5 -10 10 0 6 5 10 10 10 6 0 10 -4 10 -10z m20 -116 c0 -8 -19 -13 -24 -6
-3 5 1 9 9 9 8 0 15 -2 15 -3z m0 -240 c0 -8 -19 -13 -24 -6 -3 5 1 9 9 9 8 0
15 -2 15 -3z m-24 -195 c1 -22 -2 -35 -6 -29 -7 12 -5 70 3 70 1 0 3 -18 3
-41z m14 -64 c0 -2 -6 -5 -13 -8 -8 -3 -14 1 -14 8 0 7 6 11 14 8 7 -3 13 -6
13 -8z m-10 -104 c0 -6 -4 -12 -8 -15 -5 -3 -9 1 -9 9 0 8 4 15 9 15 4 0 8 -4
8 -9z m6410 -20 c-6 -12 -15 -19 -20 -16 -5 3 -2 14 8 24 22 22 27 19 12 -8z
m-164 -150 c-14 -22 -65 -51 -71 -41 -4 6 -3 9 2 8 15 -4 54 23 47 34 -4 7 -3
8 4 4 7 -4 12 -2 12 5 0 7 3 10 6 6 3 -3 3 -10 0 -16z m-6250 -32 c2 -17 0
-28 -3 -25 -3 3 -7 19 -8 36 -1 17 0 28 3 25 3 -3 7 -19 8 -36z m0 -240 c2
-17 0 -28 -3 -25 -3 3 -7 19 -8 36 -1 17 0 28 3 25 3 -3 7 -19 8 -36z m5854
-54 c0 -2 -8 -9 -18 -14 -14 -7 -19 -6 -19 3 0 6 9 13 19 13 10 1 18 0 18 -2z
m-51 -18 c-2 -1 -13 -9 -24 -17 -19 -14 -19 -14 -6 3 7 9 18 17 24 17 6 0 8
-1 6 -3z m-5789 -43 c0 -8 -19 -13 -24 -6 -3 5 1 9 9 9 8 0 15 -2 15 -3z m4
-50 c3 -8 2 -12 -4 -9 -6 3 -10 10 -10 16 0 14 7 11 14 -7z m0 -60 c3 -8 2
-12 -4 -9 -6 3 -10 10 -10 16 0 14 7 11 14 -7z m-19 -13 c3 -5 2 -12 -3 -15
-5 -3 -9 1 -9 9 0 17 3 19 12 6z m5 -40 c0 -6 -4 -12 -8 -15 -5 -3 -9 1 -9 9
0 8 4 15 9 15 4 0 8 -4 8 -9z m5493 -46 c-7 -21 -12 -19 -10 4 0 11 5 18 9 15
4 -3 5 -11 1 -19z m-30 1 c7 -18 -49 -60 -59 -44 -5 7 -3 8 6 3 10 -6 12 -4 7
9 -4 9 -3 15 2 11 15 -9 40 6 34 21 -3 8 -3 14 0 14 3 0 7 -6 10 -14z m-5453
-32 c0 -8 -19 -13 -24 -6 -3 5 1 9 9 9 8 0 15 -2 15 -3z m5373 -9 c-3 -9 -8
-14 -10 -11 -3 3 -2 9 2 15 9 16 15 13 8 -4z m-5369 -41 c3 -8 2 -12 -4 -9 -6
3 -10 10 -10 16 0 14 7 11 14 -7z m6 -116 c0 -11 -12 -10 -30 2 -12 7 -10 9 8
7 12 0 22 -5 22 -9z m-20 -73 c0 -8 -4 -15 -8 -15 -5 0 -9 7 -9 15 0 8 4 15 9
15 4 0 8 -7 8 -15z m4 -87 c-13 -21 -10 -52 6 -66 11 -10 12 -15 3 -18 -24
-10 -28 -4 -29 45 0 28 4 48 8 45 4 -3 8 0 8 7 0 7 3 10 6 6 3 -3 2 -12 -2
-19z m4836 -51 c0 -2 -11 -14 -24 -26 -18 -17 -26 -19 -31 -10 -5 7 -4 10 2 6
5 -3 16 3 23 14 12 16 30 26 30 16z m-449 -260 c-10 -9 -11 -8 -5 6 3 10 9 15
12 12 3 -3 0 -11 -7 -18z m-26 -15 c-3 -3 -11 0 -18 7 -9 10 -8 11 6 5 10 -3
15 -9 12 -12z m-4338 -8 c-3 -3 -12 -4 -19 -1 -8 3 -5 6 6 6 11 1 17 -2 13 -5z
m25 -251 c-6 -2 -10 -9 -6 -14 3 -5 1 -9 -5 -9 -5 0 -12 4 -15 9 -6 9 10 19
29 19 6 0 4 -2 -3 -5z m24 -63 c0 -12 -4 -16 -9 -11 -5 5 -6 14 -3 20 10 15
12 14 12 -9z m3488 -156 c3 -8 2 -12 -4 -9 -6 3 -10 10 -10 16 0 14 7 11 14
-7z m-3414 -148 c0 -3 -4 -8 -10 -11 -5 -3 -10 -1 -10 4 0 6 5 11 10 11 6 0
10 -2 10 -4z m-6 -52 c-3 -18 -1 -23 7 -18 7 4 9 3 5 -4 -3 -5 -1 -12 6 -14 8
-3 6 -7 -5 -11 -9 -3 -16 -3 -15 1 1 4 -4 18 -11 31 -11 20 -11 25 0 32 8 5
15 9 16 9 1 0 0 -12 -3 -26z m34 -67 c8 -10 6 -13 -9 -14 -19 -2 -25 8 -12 20
8 9 9 9 21 -6z m2847 -47 c-3 -5 -12 -10 -18 -10 -7 0 -6 4 3 10 19 12 23 12
15 0z m-2805 -14 c0 -3 -4 -8 -10 -11 -5 -3 -10 -1 -10 4 0 6 5 11 10 11 6 0
10 -2 10 -4z m13 -51 c-3 -9 -8 -14 -10 -11 -3 3 -2 9 2 15 9 16 15 13 8 -4z
m15 -60 c-10 -22 -38 -25 -38 -4 0 4 7 6 15 3 14 -6 20 6 16 29 -1 5 3 6 8 2
7 -4 6 -14 -1 -30z m2602 21 c-7 -7 -13 -7 -20 0 -6 6 -3 10 10 10 13 0 16 -4
10 -10z m-85 -65 c-3 -6 -11 -11 -16 -11 -5 0 -4 6 3 14 14 16 24 13 13 -3z
m-64 -44 c-13 -13 -26 -3 -16 12 3 6 11 8 17 5 6 -4 6 -10 -1 -17z m-2396 -19
c-9 -6 -19 -7 -22 -4 -4 3 -1 6 6 6 7 0 9 4 6 10 -4 6 1 7 11 3 15 -6 15 -7
-1 -15z m2322 6 c-3 -3 -12 -4 -19 -1 -8 3 -5 6 6 6 11 1 17 -2 13 -5z m-2317
-34 c0 -5 -2 -10 -4 -10 -3 0 -8 5 -11 10 -3 6 -1 10 4 10 6 0 11 -4 11 -10z
m40 -19 c0 -5 -7 -12 -16 -15 -14 -5 -15 -4 -4 9 14 17 20 19 20 6z m138 -154
c18 7 17 5 -9 -15 -13 -10 -19 -9 -30 5 -9 11 -10 14 -1 9 7 -4 12 -2 13 6 0
9 2 10 5 1 3 -7 13 -9 22 -6z m1652 -17 c0 -5 -2 -10 -4 -10 -3 0 -8 5 -11 10
-3 6 -1 10 4 10 6 0 11 -4 11 -10z m-1529 -94 c5 3 9 0 9 -6 0 -6 6 -8 13 -4
6 4 9 3 4 -1 -13 -15 -47 -12 -60 4 -9 12 -9 13 1 7 7 -4 12 -2 13 6 0 10 2
10 6 0 2 -6 9 -10 14 -6z m1285 2 c3 -4 -1 -5 -10 -4 -8 1 -18 5 -22 8 -3 4 1
5 10 4 8 -1 18 -5 22 -8z m-1106 -98 c0 -5 -2 -10 -4 -10 -3 0 -8 5 -11 10 -3
6 -1 10 4 10 6 0 11 -4 11 -10z m749 -13 c0 -9 -2 -8 -6 1 -2 6 -10 9 -15 6
-7 -4 -8 -2 -4 5 9 13 26 5 25 -12z m111 15 c0 -5 -7 -9 -15 -9 -8 0 -12 4 -9
9 3 4 9 8 15 8 5 0 9 -4 9 -8z m-336 -44 c-7 -10 -34 -10 -34 0 0 4 9 8 19 8
11 0 17 -4 15 -8z m62 -10 c5 4 6 3 1 -2 -12 -16 -46 -14 -40 1 4 9 9 10 18 3
6 -5 16 -6 21 -2z m-216 -8 c0 -5 -2 -10 -4 -10 -3 0 -8 5 -11 10 -3 6 -1 10
4 10 6 0 11 -4 11 -10z"/>
<path d="M20 1799 c0 -5 5 -7 10 -4 6 3 10 8 10 11 0 2 -4 4 -10 4 -5 0 -10
-5 -10 -11z"/>
<path d="M430 6521 c0 -6 4 -13 10 -16 6 -3 7 1 4 9 -7 18 -14 21 -14 7z"/>
<path d="M464 6506 c-10 -22 -10 -24 6 -14 10 7 16 18 13 25 -7 17 -6 17 -19
-11z"/>
<path d="M280 6239 c0 -5 5 -7 10 -4 6 3 10 8 10 11 0 2 -4 4 -10 4 -5 0 -10
-5 -10 -11z"/>
<path d="M234 6175 c-1 -14 2 -25 6 -25 16 0 19 17 7 34 -11 14 -12 13 -13 -9z"/>
<path d="M205 6110 c-3 -6 1 -7 9 -4 18 7 21 14 7 14 -6 0 -13 -4 -16 -10z"/>
<path d="M93 5845 c0 -8 4 -12 9 -9 5 3 6 10 3 15 -9 13 -12 11 -12 -6z"/>
<path d="M50 5666 c0 -2 6 -9 14 -15 11 -9 16 -9 22 0 4 8 3 9 -4 5 -7 -4 -12
-2 -12 3 0 6 -4 11 -10 11 -5 0 -10 -2 -10 -4z"/>
<path d="M47 5600 c8 -9 9 -19 2 -32 -6 -12 -6 -18 1 -18 5 0 10 7 10 16 0 8
4 13 8 10 5 -3 9 1 9 9 0 8 -3 13 -5 10 -3 -3 -12 1 -21 7 -13 10 -14 10 -4
-2z"/>
<path d="M15 5480 c3 -5 8 -10 11 -10 2 0 4 5 4 10 0 6 -5 10 -11 10 -5 0 -7
-4 -4 -10z"/>
<path d="M10 5419 c0 -5 5 -7 10 -4 6 3 10 8 10 11 0 2 -4 4 -10 4 -5 0 -10
-5 -10 -11z"/>
<path d="M25 5261 c-3 -5 -2 -12 3 -15 5 -3 9 1 9 9 0 17 -3 19 -12 6z"/>
<path d="M11 5151 c-8 -5 -9 -11 -3 -15 5 -3 12 1 16 9 6 17 6 18 -13 6z"/>
<path d="M4 5066 c1 -8 5 -18 8 -22 4 -3 5 1 4 10 -1 8 -5 18 -8 22 -4 3 -5
-1 -4 -10z"/>
<path d="M6495 3021 c-3 -5 -2 -12 3 -15 5 -3 9 1 9 9 0 17 -3 19 -12 6z"/>
<path d="M6355 2910 c-13 -21 -15 -41 -4 -34 5 3 6 10 3 16 -5 7 -1 9 9 5 9
-3 19 -1 23 5 4 6 3 8 -4 4 -5 -3 -12 -1 -14 6 -3 9 -7 8 -13 -2z"/>
<path d="M6330 2851 c0 -6 4 -13 10 -16 6 -3 7 1 4 9 -7 18 -14 21 -14 7z"/>
<path d="M6001 2611 c-20 -15 -21 -19 -7 -24 9 -4 15 -3 15 1 -3 18 2 26 10
14 7 -11 9 -11 14 2 9 23 -6 27 -32 7z"/>
<path d="M5964 2568 c-3 -5 -3 -12 0 -15 3 -4 6 -2 6 4 0 6 9 9 20 6 11 -3 20
-3 20 0 0 10 -40 15 -46 5z"/>
<path d="M5930 2500 c0 -5 5 -10 11 -10 5 0 7 5 4 10 -3 6 -8 10 -11 10 -2 0
-4 -4 -4 -10z"/>
<path d="M5840 2439 c0 -5 5 -7 10 -4 6 3 10 8 10 11 0 2 -4 4 -10 4 -5 0 -10
-5 -10 -11z"/>
<path d="M5788 2413 c7 -3 16 -2 19 1 4 3 -2 6 -13 5 -11 0 -14 -3 -6 -6z"/>
<path d="M5595 2290 c-3 -5 -1 -10 4 -10 6 0 11 5 11 10 0 6 -2 10 -4 10 -3 0
-8 -4 -11 -10z"/>
<path d="M5576 2233 c-6 -14 -5 -15 5 -6 7 7 10 15 7 18 -3 3 -9 -2 -12 -12z"/>
<path d="M5466 2163 c-6 -14 -5 -15 5 -6 7 7 10 15 7 18 -3 3 -9 -2 -12 -12z"/>
<path d="M5186 2005 c-10 -8 -24 -16 -30 -18 -8 -3 -7 -9 2 -18 11 -12 13 -12
10 1 -2 9 4 15 16 15 11 0 20 8 22 18 1 9 2 17 1 17 -1 0 -11 -7 -21 -15z"/>
<path d="M5111 1953 c7 -12 15 -20 18 -17 3 2 -3 12 -13 22 -17 16 -18 16 -5
-5z"/>
<path d="M5067 1925 c2 -6 12 -11 22 -11 10 0 18 5 18 11 0 5 -10 10 -22 10
-13 0 -21 -5 -18 -10z"/>
<path d="M4950 1839 c0 -5 5 -7 10 -4 6 3 10 8 10 11 0 2 -4 4 -10 4 -5 0 -10
-5 -10 -11z"/>
<path d="M4894 1806 c1 -8 5 -18 8 -22 4 -3 5 1 4 10 -1 8 -5 18 -8 22 -4 3
-5 -1 -4 -10z"/>
<path d="M4766 1718 c3 -5 10 -6 15 -3 13 9 11 12 -6 12 -8 0 -12 -4 -9 -9z"/>
<path d="M4713 1705 c0 -7 6 -11 14 -8 7 3 13 6 13 8 0 2 -6 5 -13 8 -8 3 -14
-1 -14 -8z"/>
<path d="M4585 1630 c-3 -6 1 -7 9 -4 18 7 21 14 7 14 -6 0 -13 -4 -16 -10z"/>
<path d="M4361 1516 c-9 -10 -8 -15 3 -19 11 -4 13 -1 9 11 -6 15 -5 16 13 2
18 -14 18 -14 5 3 -16 21 -16 20 -30 3z"/>
<path d="M19 1491 c7 -5 14 -20 14 -35 0 -14 3 -26 7 -26 9 0 7 41 -3 58 -5 6
-14 12 -20 12 -8 0 -7 -3 2 -9z"/>
<path d="M4350 1480 c0 -5 5 -10 11 -10 5 0 7 5 4 10 -3 6 -8 10 -11 10 -2 0
-4 -4 -4 -10z"/>
<path d="M4225 1435 c-26 -22 -27 -24 -8 -22 12 0 21 4 21 7 -1 17 4 21 15 12
10 -8 13 -6 14 9 2 25 -5 24 -42 -6z"/>
<path d="M33 1405 c0 -8 4 -15 9 -15 4 0 8 4 8 9 0 6 -4 12 -8 15 -5 3 -9 -1
-9 -9z"/>
<path d="M7 1379 c7 -7 15 -10 18 -7 3 3 -2 9 -12 12 -14 6 -15 5 -6 -5z"/>
<path d="M4065 1329 c-4 -6 -4 -13 -1 -16 3 -4 6 -1 6 6 0 7 5 9 12 5 7 -4 8
-3 4 4 -9 15 -13 15 -21 1z"/>
<path d="M4001 1306 c-14 -17 -1 -28 19 -16 11 7 12 12 4 20 -8 8 -14 7 -23
-4z"/>
<path d="M3859 1238 c-7 -25 -5 -36 6 -31 8 2 11 11 8 19 -5 12 -12 18 -14 12z"/>
<path d="M3886 1225 c4 -8 11 -15 16 -15 6 0 5 6 -2 15 -7 8 -14 15 -16 15 -2
0 -1 -7 2 -15z"/>
<path d="M56 1197 c3 -10 9 -15 12 -12 3 3 0 11 -7 18 -10 9 -11 8 -5 -6z"/>
<path d="M3743 1150 c-32 -29 -47 -54 -19 -31 8 7 16 8 18 4 3 -4 3 -2 2 4 -4
15 30 36 40 25 4 -3 4 1 0 11 -8 21 -3 22 -41 -13z"/>
<path d="M3675 1110 c-10 -11 -23 -17 -29 -13 -6 3 -6 0 1 -7 16 -18 43 -22
40 -7 -1 7 4 11 12 9 11 -2 12 0 3 11 -7 8 -9 17 -5 20 3 4 4 7 1 7 -3 0 -13
-9 -23 -20z m15 -4 c0 -2 -8 -10 -17 -17 -16 -13 -17 -12 -4 4 13 16 21 21 21
13z"/>
<path d="M3570 1040 c0 -5 5 -10 11 -10 5 0 7 5 4 10 -3 6 -8 10 -11 10 -2 0
-4 -4 -4 -10z"/>
<path d="M3507 996 c-4 -10 -1 -13 8 -9 8 3 12 9 9 14 -7 12 -11 11 -17 -5z"/>
<path d="M3466 981 c-4 -5 -2 -12 4 -16 6 -4 7 -11 4 -17 -4 -6 -2 -8 4 -5 10
7 11 32 0 42 -3 4 -9 2 -12 -4z"/>
<path d="M125 920 c-3 -5 -1 -10 4 -10 6 0 11 5 11 10 0 6 -2 10 -4 10 -3 0
-8 -4 -11 -10z"/>
<path d="M3330 860 c0 -5 5 -10 11 -10 5 0 7 5 4 10 -3 6 -8 10 -11 10 -2 0
-4 -4 -4 -10z"/>
<path d="M3219 858 c-6 -21 -5 -38 2 -38 5 0 9 9 9 20 0 16 -7 28 -11 18z"/>
<path d="M3216 793 c-6 -14 -5 -15 5 -6 7 7 10 15 7 18 -3 3 -9 -2 -12 -12z"/>
<path d="M3135 760 c-3 -6 1 -7 9 -4 18 7 21 14 7 14 -6 0 -13 -4 -16 -10z"/>
<path d="M3077 753 c-11 -11 -8 -20 7 -20 8 0 12 6 9 14 -6 15 -7 15 -16 6z"/>
<path d="M216 671 c-4 -5 -2 -12 3 -15 5 -4 12 -2 15 3 4 5 2 12 -3 15 -5 4
-12 2 -15 -3z"/>
<path d="M2865 612 c-5 -4 -12 -16 -13 -27 -4 -23 0 -20 17 13 12 24 12 26 -4
14z"/>
<path d="M260 579 c0 -5 5 -7 10 -4 6 3 10 8 10 11 0 2 -4 4 -10 4 -5 0 -10
-5 -10 -11z"/>
<path d="M2673 498 c-1 -11 1 -16 5 -12 4 5 11 12 15 15 5 3 2 9 -5 12 -9 3
-14 -3 -15 -15z"/>
<path d="M2615 460 c-3 -6 1 -7 9 -4 18 7 21 14 7 14 -6 0 -13 -4 -16 -10z"/>
<path d="M2534 449 c-3 -6 -3 -13 0 -16 3 -4 6 0 6 8 0 12 2 12 9 0 5 -8 11
-9 15 -3 3 5 -1 12 -9 16 -8 3 -17 1 -21 -5z"/>
<path d="M383 411 c0 -11 5 -18 9 -15 4 3 5 11 1 19 -7 21 -12 19 -10 -4z"/>
<path d="M2470 389 c0 -5 5 -7 10 -4 6 3 10 8 10 11 0 2 -4 4 -10 4 -5 0 -10
-5 -10 -11z"/>
<path d="M2280 320 c-12 -7 -10 -9 7 -7 12 0 19 5 17 9 -6 10 -6 10 -24 -2z"/>
<path d="M450 300 c0 -5 5 -10 11 -10 5 0 7 5 4 10 -3 6 -8 10 -11 10 -2 0 -4
-4 -4 -10z"/>
<path d="M507 269 c-3 -11 0 -16 8 -13 7 3 20 -2 29 -11 9 -9 16 -13 16 -9 0
4 -11 17 -24 29 -22 21 -25 21 -29 4z"/>
<path d="M1946 194 c-3 -8 -10 -12 -16 -9 -6 3 -13 -1 -16 -9 -3 -9 -9 -14
-13 -11 -4 2 -8 -3 -8 -12 0 -13 3 -12 16 4 9 11 23 19 32 18 8 -2 16 6 16 16
2 23 -3 24 -11 3z"/>
<path d="M708 133 c6 -2 9 -10 6 -15 -4 -7 -2 -8 5 -4 13 9 5 26 -12 25 -9 0
-8 -2 1 -6z"/>
<path d="M1746 132 c-2 -4 0 -14 6 -22 8 -12 9 -12 5 2 -3 9 -1 19 6 22 9 3 9
5 0 5 -6 1 -14 -3 -17 -7z"/>
<path d="M828 82 c-10 -14 -10 -15 2 -4 12 10 17 8 28 -10 l13 -23 -7 24 c-5
18 -3 22 7 16 8 -5 10 -4 6 0 -13 15 -36 14 -49 -3z"/>
<path d="M1496 74 c-4 -9 -4 -19 -1 -22 2 -3 7 3 11 12 4 9 4 19 1 22 -2 3 -7
-3 -11 -12z"/>
<path d="M1025 49 c-4 -6 -5 -12 -2 -15 2 -3 7 2 10 11 7 17 1 20 -8 4z"/>
<path d="M1115 51 c-3 -6 -11 -9 -16 -6 -5 4 -9 1 -9 -4 0 -6 10 -9 23 -7 20
3 25 11 14 22 -3 3 -8 0 -12 -5z"/>
<path d="M1225 49 c-4 -6 -5 -12 -2 -15 2 -3 7 2 10 11 7 17 1 20 -8 4z"/>
<path d="M946 42 c-2 -4 4 -8 14 -8 10 0 16 4 14 8 -7 10 -21 10 -28 0z"/>
</g>
</svg>
