<?xml version="1.0" standalone="no"?>
<!DOCTYPE svg PUBLIC "-//W3C//DTD SVG 20010904//EN"
 "http://www.w3.org/TR/2001/REC-SVG-20010904/DTD/svg10.dtd">
<svg version="1.0" xmlns="http://www.w3.org/2000/svg"
 width="512.000000pt" height="512.000000pt" viewBox="0 0 512.000000 512.000000"
 preserveAspectRatio="xMidYMid meet">
<metadata>
Created by potrace 1.14, written by Peter Selinger 2001-2017
</metadata>
<g transform="translate(0.000000,512.000000) scale(0.100000,-0.100000)"
fill="#000000" stroke="none">
<path d="M2004 3570 c-84 -4 -201 -13 -260 -19 -249 -26 -604 -95 -674 -131
-128 -65 -148 -249 -37 -347 71 -62 119 -65 332 -19 287 61 565 88 900 88 576
-1 1034 -103 1474 -328 131 -67 150 -74 203 -74 110 0 188 66 213 178 10 50
-12 125 -51 171 -64 74 -412 237 -694 324 -402 125 -924 183 -1406 157z"/>
<path d="M1950 2789 c-254 -18 -616 -83 -677 -120 -61 -38 -92 -117 -73 -188
20 -77 88 -131 162 -131 18 0 98 13 178 29 694 141 1426 62 1919 -206 46 -25
100 -50 120 -54 115 -26 232 96 201 211 -19 70 -59 103 -223 183 -287 141
-529 212 -877 258 -171 23 -543 32 -730 18z"/>
<path d="M1905 2110 c-125 -12 -271 -35 -394 -61 -81 -18 -111 -29 -137 -51
-63 -56 -68 -139 -13 -203 48 -54 83 -59 224 -30 205 42 364 57 590 58 407 1
695 -60 1017 -214 125 -60 152 -70 180 -64 84 18 134 82 125 161 -8 73 -35 98
-190 174 -226 110 -421 170 -691 212 -149 22 -556 33 -711 18z"/>
</g>
</svg>
